<svg xmlns="http://www.w3.org/2000/svg" version="1.1" xmlns:xlink="http://www.w3.org/1999/xlink" width="512" height="512" x="0" y="0" viewBox="0 0 32 32" style="enable-background:new 0 0 512 512" xml:space="preserve" fill-rule="evenodd" class=""><g><path d="M22 31h6a3 3 0 0 0 3-3v-6a1 1 0 0 0-2 0v6a1 1 0 0 1-1 1h-6a1 1 0 0 0 0 2zm-12-2H4a1 1 0 0 1-1-1v-6a1 1 0 0 0-2 0v6a3 3 0 0 0 3 3h6a1 1 0 0 0 0-2zm5-9v6a1 1 0 0 0 2 0v-6a1 1 0 0 0-2 0zm-2 0a1 1 0 0 0-1-1H6a1 1 0 0 0-1 1v6a1 1 0 0 0 1 1h6a1 1 0 0 0 1-1zm14 0a1 1 0 0 0-1-1h-6a1 1 0 0 0-1 1v6a1 1 0 0 0 1 1h6a1 1 0 0 0 1-1zm-16 1v4H7v-4zm14 0v4h-4v-4zm-10-4h1a1 1 0 0 0 0-2h-1a1 1 0 0 0 0 2zm-9 0h5a1 1 0 0 0 0-2H6a1 1 0 0 0 0 2zm18-2h1v1a1 1 0 0 0 2 0v-2a1 1 0 0 0-1-1h-2a1 1 0 0 0 0 2zm-3 1v-5h1a1 1 0 0 0 0-2h-2a1 1 0 0 0-1 1v6a1 1 0 0 0 2 0zm-6-6v2a1 1 0 0 0 2 0v-2a1 1 0 0 0-2 0zm-2-4a1 1 0 0 0-1-1H6a1 1 0 0 0-1 1v6a1 1 0 0 0 1 1h6a1 1 0 0 0 1-1zm-3-5H4a3 3 0 0 0-3 3v6a1 1 0 0 0 2 0V4a1 1 0 0 1 1-1h6a1 1 0 0 0 0-2zm1 6v4H7V7zm11-4h6a1 1 0 0 1 1 1v6a1 1 0 0 0 2 0V4a3 3 0 0 0-3-3h-6a1 1 0 0 0 0 2zm-6 4h9v3a1 1 0 0 0 2 0V6a1 1 0 0 0-1-1H16a1 1 0 0 0 0 2z" fill="#000000" opacity="1" data-original="#000000" class=""></path></g></svg>