<svg xmlns="http://www.w3.org/2000/svg" version="1.1" xmlns:xlink="http://www.w3.org/1999/xlink" x="0" y="0"
    viewBox="0 0 24 24" style="enable-background:new 0 0 512 512" xml:space="preserve" class="">
    <g transform="matrix(1,0,0,1,3.552713678800501e-15,3.552713678800501e-15)">
        <path
            d="M21 7H8a1 1 0 0 1 0-2h13a1 1 0 0 1 0 2zm1 5a1 1 0 0 0-1-1H3a1 1 0 0 0 0 2h18a1 1 0 0 0 1-1zm0 6a1 1 0 0 0-1-1h-9a1 1 0 0 0 0 2h9a1 1 0 0 0 1-1z"
            fill="#ff5733" opacity="1" data-original="#ff5733" class=""></path>
    </g>
</svg>